<svg width="211" height="34" viewBox="0 0 211 34" fill="none" xmlns="http://www.w3.org/2000/svg">
<path d="M105.29 30.1238H0V33.9999H105.29V30.1238Z" fill="#EC1C24"/>
<path d="M210.58 30.1238H105.29V33.9999H210.58V30.1238Z" fill="#72BE44"/>
<path d="M69.3688 11.9156H74.7447C74.6095 11.3169 74.2643 10.7813 73.7673 10.3991C73.278 10.0273 72.6699 9.83081 72.047 9.84331C71.4385 9.84261 70.8482 10.0439 70.3756 10.4132C69.8874 10.797 69.5439 11.325 69.3981 11.9156H69.3688ZM76.2402 16.1874L77.2177 18.0713C76.5139 18.6789 74.9744 19.3335 72.6237 19.3335C71.0032 19.3473 69.4292 18.8123 68.1763 17.8217C67.049 16.8075 66.4854 15.3601 66.4854 13.4793C66.4854 11.6801 66.992 10.2374 68.0053 9.15097C68.5139 8.61906 69.1357 8.19933 69.8282 7.92051C70.5207 7.64169 71.2676 7.51036 72.0177 7.53551C73.9921 7.53551 75.4583 8.21843 76.4162 9.58427C77.1886 10.8031 77.5632 12.2176 77.4913 13.6441V14.0492H69.2124C69.1958 14.462 69.2749 14.8732 69.444 15.2529C69.6131 15.6326 69.8679 15.9711 70.1899 16.2439C70.9753 16.758 71.904 17.0306 72.8534 17.0257C74.0252 17.0535 75.1822 16.7682 76.1962 16.2015" fill="white"/>
<path d="M16.6898 0L10.2338 13.682L3.85601 0L0 18.9852H2.88835L4.79925 8.30809L10.0774 19.7953L15.4289 8.33164L17.2665 18.9852H20.15L16.6898 0Z" fill="white"/>
<path d="M22.6176 18.5988C22.4139 18.4065 22.2628 18.1686 22.1779 17.9063C22.093 17.644 22.0768 17.3655 22.1309 17.0957C22.185 16.8259 22.3076 16.5733 22.4878 16.3604C22.668 16.1474 22.9002 15.9808 23.1635 15.8755C23.4269 15.7702 23.7132 15.7294 23.9969 15.7568C24.2806 15.7842 24.5528 15.879 24.7892 16.0326C25.0256 16.1862 25.2188 16.3939 25.3516 16.637C25.4843 16.8802 25.5525 17.1513 25.5499 17.426C25.5469 17.7521 25.4444 18.0701 25.2552 18.3405C25.0661 18.6109 24.7986 18.8217 24.4861 18.9467C24.1735 19.0716 23.8298 19.1053 23.4975 19.0435C23.1653 18.9816 22.8593 18.827 22.6176 18.5988Z" fill="white"/>
<path d="M30.7848 11.1339V16.4842H32.466C33.81 16.4842 34.7532 16.2205 35.2859 15.6883C35.544 15.4422 35.7479 15.1486 35.8856 14.8249C36.0233 14.5012 36.092 14.1541 36.0874 13.8044C36.0937 13.4543 36.0258 13.1068 35.888 12.7828C35.7502 12.4589 35.5453 12.1655 35.2859 11.9204C34.7532 11.4118 33.8198 11.1527 32.5198 11.1527L30.7848 11.1339ZM30.7848 3.83842V8.91087H31.6254C33.6194 8.91087 34.6164 8.04427 34.6164 6.31106C34.6164 4.66263 33.6552 3.83842 31.7329 3.83842H30.7848ZM27.9404 1.31396H30.7213C31.4543 1.31396 31.9822 1.31396 32.3047 1.31396C32.7704 1.35601 33.2315 1.43637 33.6829 1.55416C34.7584 1.8006 35.7112 2.40043 36.3774 3.25052C37.0437 4.10061 37.3818 5.14784 37.3337 6.21215C37.3534 6.83733 37.2157 7.45781 36.9322 8.02048C36.6488 8.58316 36.2281 9.07128 35.7062 9.44308C36.6982 9.70926 37.5551 10.3156 38.1156 11.148C38.6388 11.9161 38.9174 12.8149 38.9171 13.7337C38.9521 14.4944 38.8045 15.2527 38.4858 15.9495C38.1671 16.6463 37.6858 17.2628 37.0795 17.7512C36.56 18.1519 35.9615 18.4467 35.3201 18.6178C34.8044 18.7819 34.2719 18.8924 33.7318 18.9474C33.3555 18.9757 32.8374 18.9851 32.1728 18.9851H27.9404V1.31396Z" fill="white"/>
<path d="M40.8408 7.82779H43.5141V14.1625L51.4901 6.81519V18.9853H48.8168V12.4999L40.8408 19.8425V7.82779Z" fill="white"/>
<path d="M61.3632 16.6632V10.1496H57.8982V13.2298C57.8982 14.8468 57.4437 15.9913 56.5347 16.6632H61.3632ZM55.3275 7.82764H64.0268V16.6632H65.7568V22.169H63.3132V18.9852H55.1711V22.169H52.7275V16.6632C53.1904 16.6289 53.6351 16.4747 54.0145 16.2169C54.3939 15.959 54.6939 15.6072 54.8828 15.1985C55.2593 14.2582 55.4258 13.2519 55.3715 12.2454L55.3275 7.82764Z" fill="white"/>
<path d="M119.416 7.82764V18.9852H116.738V10.1496H113.273V14.6427C113.345 15.804 112.961 16.9489 112.198 17.8501C111.799 18.2558 111.312 18.5724 110.773 18.7774C110.233 18.9825 109.654 19.0711 109.075 19.037C108.938 19.037 108.708 19.037 108.396 18.9852V16.6632C108.557 16.692 108.72 16.7093 108.884 16.715C109.148 16.7257 109.411 16.6815 109.656 16.5856C109.9 16.4898 110.12 16.3444 110.302 16.1593C110.604 15.7294 110.742 15.2117 110.692 14.6945V7.82764H119.416Z" fill="white"/>
<path d="M124.621 16.7621H125.828C126.307 16.7981 126.787 16.7121 127.221 16.5125C127.419 16.3945 127.581 16.2264 127.688 16.0263C127.795 15.8263 127.843 15.6019 127.827 15.3774C127.839 15.1594 127.791 14.9421 127.689 14.7471C127.587 14.5522 127.434 14.3863 127.245 14.2659C126.814 14.0649 126.335 13.9772 125.857 14.0116H124.621V16.7621ZM121.947 7.81348H124.621V11.7744H126.199C126.688 11.7744 127.079 11.7744 127.377 11.8121C127.778 11.8647 128.171 11.9677 128.545 12.1182C129.006 12.2813 129.417 12.5553 129.737 12.9142C130.335 13.5859 130.646 14.4511 130.607 15.335C130.642 15.8317 130.566 16.3297 130.384 16.7959C130.203 17.262 129.921 17.6856 129.557 18.0385C129.238 18.3261 128.862 18.5487 128.452 18.6931C128.113 18.8253 127.756 18.9109 127.392 18.9474C127.103 18.9474 126.698 18.971 126.17 18.971H121.947V7.81348Z" fill="white"/>
<path d="M139.896 16.6632V10.1496H136.431V13.2298C136.431 14.8468 135.977 15.9913 135.068 16.6632H139.896ZM133.861 7.82764H142.57V16.6632H144.305V22.169H141.861V18.9852H133.704V22.169H131.236V16.6632C131.699 16.6296 132.143 16.4756 132.522 16.2176C132.901 15.9596 133.199 15.6074 133.387 15.1985C133.766 14.259 133.933 13.2521 133.875 12.2454L133.861 7.82764Z" fill="white"/>
<path d="M164.616 9.848C164.184 9.84295 163.755 9.92403 163.358 10.0861C162.96 10.2482 162.601 10.4879 162.304 10.79C161.967 11.1476 161.707 11.5662 161.539 12.0213C161.372 12.4765 161.299 12.9592 161.326 13.4416C161.289 14.3721 161.599 15.2847 162.201 16.0131C162.493 16.3533 162.863 16.6229 163.282 16.8004C163.702 16.9779 164.158 17.0583 164.616 17.0351C165.063 17.0506 165.509 16.965 165.916 16.7851C166.323 16.6052 166.681 16.336 166.961 15.999C167.564 15.2685 167.875 14.355 167.841 13.4227C167.867 12.947 167.794 12.4711 167.626 12.023C167.458 11.5749 167.199 11.1637 166.864 10.8135C166.575 10.513 166.224 10.274 165.833 10.1118C165.443 9.94964 165.021 9.8678 164.596 9.87155L164.616 9.848ZM161.473 7.85104V9.06146C161.9 8.5617 162.441 8.1639 163.054 7.89917C163.667 7.63444 164.335 7.50997 165.007 7.53549C165.75 7.52581 166.487 7.66479 167.172 7.94366C167.857 8.22252 168.474 8.63522 168.985 9.15566C169.538 9.72089 169.968 10.3872 170.249 11.1153C170.53 11.8433 170.657 12.6183 170.622 13.3945C170.654 14.1837 170.519 14.9709 170.226 15.7084C169.933 16.4459 169.487 17.1184 168.916 17.6851C168.424 18.2058 167.825 18.6227 167.157 18.9096C166.489 19.1966 165.767 19.3473 165.036 19.3524C164.717 19.3503 164.4 19.3172 164.088 19.2535C163.644 19.1422 163.217 18.976 162.817 18.7589C162.304 18.5036 161.853 18.1474 161.493 17.7134V24.3071H158.834V7.8275L161.473 7.85104Z" fill="white"/>
<path d="M177.978 9.84816C177.531 9.83573 177.086 9.92222 176.679 10.101C176.271 10.2798 175.912 10.5461 175.628 10.8796C175.013 11.6049 174.692 12.5201 174.723 13.4559C174.696 14.3714 175.007 15.2666 175.603 15.9803C175.9 16.3022 176.263 16.5604 176.669 16.7382C177.076 16.9161 177.517 17.0096 177.963 17.0127C178.41 17.0158 178.852 16.9285 179.261 16.7563C179.671 16.5841 180.038 16.331 180.339 16.0133C180.944 15.2846 181.257 14.3698 181.219 13.437C181.251 12.9569 181.185 12.4753 181.023 12.0201C180.861 11.5649 180.607 11.1453 180.275 10.7854C179.98 10.4823 179.622 10.2419 179.225 10.0797C178.828 9.91753 178.4 9.83705 177.969 9.84345L177.978 9.84816ZM181.062 7.82295H183.76V18.9852H181.072V17.8266C180.643 18.3187 180.104 18.7106 179.496 18.9725C178.887 19.2344 178.224 19.3595 177.558 19.3384C176.786 19.3631 176.018 19.2167 175.314 18.9105C174.61 18.6043 173.988 18.1464 173.497 17.5722C172.479 16.4074 171.934 14.9266 171.962 13.4041C171.932 11.8922 172.472 10.4211 173.482 9.26414C173.986 8.69062 174.619 8.23551 175.333 7.93352C176.047 7.63152 176.823 7.49061 177.602 7.52152C178.277 7.49145 178.95 7.6238 179.559 7.90663C180.168 8.18946 180.695 8.61389 181.091 9.14169L181.062 7.82295Z" fill="white"/>
<path d="M193.592 16.6632V10.1496H190.132V13.2298C190.132 14.8468 189.677 15.9913 188.768 16.6632H193.592ZM187.561 7.82764H196.27V16.6632H198V22.169H195.556V18.9852H187.405V22.169H184.937V16.6632C185.399 16.6291 185.843 16.4749 186.222 16.217C186.6 15.9591 186.899 15.6071 187.087 15.1985C187.467 14.259 187.633 13.2521 187.576 12.2454L187.561 7.82764Z" fill="white"/>
<path d="M93.7153 5.44919L92.1563 3.80076C93.8326 1.88387 96.8529 0.94191 99.0424 0.94191C100.221 0.904456 101.396 1.09337 102.499 1.49766C103.601 1.90195 104.609 2.51353 105.464 3.29681C107.282 4.99862 108.193 7.27816 108.196 10.1354C108.196 12.8954 107.285 15.1498 105.464 16.8987C104.611 17.7127 103.595 18.3498 102.477 18.771C101.359 19.1922 100.164 19.3885 98.9642 19.3478C96.9849 19.3478 93.7251 18.3258 92.1221 16.489L93.7006 14.8311C95.0566 16.088 96.8581 16.8003 98.7394 16.8234C100.838 16.8234 102.489 16.1954 103.695 14.9394C104.687 13.9135 105.255 12.5734 105.293 11.1716H96.1833V8.65656H105.23C105.058 7.35858 104.472 6.14403 103.553 5.18073C102.432 4.05038 100.893 3.4852 98.9349 3.4852C97.0023 3.49731 95.1429 4.19864 93.7153 5.4539" fill="white"/>
<path d="M85.0397 10.0505C84.3461 10.0523 83.6686 10.2522 83.0929 10.625C82.5171 10.9977 82.0689 11.5264 81.8048 12.1445C81.5407 12.7626 81.4726 13.4422 81.6091 14.0976C81.7456 14.7529 82.0806 15.3546 82.5717 15.8266C83.0628 16.2986 83.6881 16.6197 84.3685 16.7494C85.0489 16.8791 85.754 16.8116 86.3946 16.5554C87.0352 16.2992 87.5827 15.8658 87.9678 15.3099C88.3529 14.754 88.5585 14.1005 88.5585 13.4321C88.5559 12.5344 88.184 11.6743 87.5244 11.0404C86.8648 10.4064 85.9713 10.0505 85.0397 10.0505ZM85.0397 19.3476C83.8259 19.3467 82.6396 18.9989 81.6308 18.3484C80.622 17.6978 79.836 16.7736 79.3721 15.6926C78.9083 14.6116 78.7874 13.4223 79.0248 12.2752C79.2622 11.128 79.8472 10.0744 80.7059 9.24755C81.5645 8.42072 82.6583 7.85779 83.8489 7.62992C85.0394 7.40206 86.2734 7.51948 87.3948 7.96734C88.5161 8.41521 89.4745 9.17342 90.1488 10.1461C90.8231 11.1188 91.1829 12.2623 91.1829 13.4321C91.1804 15.001 90.5321 16.5049 89.3805 17.6139C88.2288 18.7229 86.6678 19.3464 85.0397 19.3476Z" fill="white"/>
<path d="M204.437 10.0505C203.743 10.0514 203.065 10.2505 202.489 10.6227C201.913 10.9948 201.464 11.5233 201.199 12.1413C200.934 12.7593 200.865 13.439 201.001 14.0947C201.137 14.7504 201.472 15.3525 201.963 15.8249C202.453 16.2974 203.079 16.619 203.759 16.7491C204.44 16.8792 205.145 16.812 205.786 16.5559C206.427 16.2998 206.975 15.8663 207.36 15.3103C207.745 14.7543 207.951 14.1007 207.951 13.4321C207.948 12.5352 207.577 11.6758 206.919 11.042C206.26 10.4082 205.368 10.0517 204.437 10.0505ZM204.437 19.3476C203.223 19.3467 202.037 18.9989 201.028 18.3484C200.019 17.6978 199.233 16.7736 198.77 15.6926C198.306 14.6116 198.185 13.4223 198.422 12.2752C198.66 11.128 199.245 10.0744 200.103 9.24755C200.962 8.42072 202.056 7.85779 203.246 7.62992C204.437 7.40206 205.671 7.51948 206.792 7.96734C207.914 8.41521 208.872 9.17342 209.546 10.1461C210.22 11.1188 210.58 12.2623 210.58 13.4321C210.578 15.001 209.93 16.5049 208.778 17.6139C207.626 18.7229 206.065 19.3464 204.437 19.3476Z" fill="white"/>
<path d="M151.14 10.0505C150.446 10.0514 149.769 10.2505 149.192 10.6227C148.616 10.9948 148.167 11.5233 147.902 12.1413C147.637 12.7593 147.568 13.439 147.704 14.0947C147.84 14.7504 148.175 15.3525 148.666 15.8249C149.157 16.2974 149.782 16.619 150.462 16.7491C151.143 16.8792 151.848 16.812 152.489 16.5559C153.13 16.2998 153.678 15.8663 154.063 15.3103C154.449 14.7543 154.654 14.1007 154.654 13.4321C154.652 12.5352 154.28 11.6758 153.622 11.042C152.963 10.4082 152.071 10.0517 151.14 10.0505ZM151.14 19.3476C149.926 19.3467 148.74 18.9989 147.731 18.3484C146.723 17.6978 145.937 16.7736 145.473 15.6926C145.009 14.6116 144.888 13.4223 145.125 12.2752C145.363 11.128 145.948 10.0744 146.806 9.24755C147.665 8.42072 148.759 7.85779 149.949 7.62992C151.14 7.40206 152.374 7.51948 153.495 7.96734C154.617 8.41521 155.575 9.17342 156.249 10.1461C156.924 11.1188 157.284 12.2623 157.284 13.4321C157.281 15.001 156.633 16.5049 155.481 17.6139C154.329 18.7229 152.768 19.3464 151.14 19.3476Z" fill="white"/>
</svg>
